<?xml version="1.0" encoding="iso-8859-1"?>
<!DOCTYPE svg PUBLIC "-//W3C//DTD SVG 1.1//EN" "http://www.w3.org/Graphics/SVG/1.1/DTD/svg11.dtd">
<svg fill="#d5dde1" height="800px" width="800px" version="1.1" id="Capa_1" xmlns="http://www.w3.org/2000/svg" xmlns:xlink="http://www.w3.org/1999/xlink" 
	 viewBox="0 0 213.015 213.015" xml:space="preserve">
<path d="M208.978,105.501l-97.156,60.395c-1.521,9.5-5.48,18.685-11.902,26.533L18.27,116.071
	c7.944-7.432,17.525-12.106,27.531-14.05l61.217-98.48c2.188-3.518,6.811-4.595,10.33-2.41c3.518,2.188,4.597,6.812,2.41,10.33
	l-55.946,90c9.286,1.21,18.325,4.738,26.178,10.603l88.258-88.258c2.93-2.928,7.678-2.928,10.607,0c2.929,2.93,2.929,7.678,0,10.607
	l-88.151,88.151c5.983,7.66,9.696,16.511,11.138,25.657l89.215-55.459c3.519-2.187,8.144-1.106,10.329,2.41
	C213.575,98.69,212.496,103.314,208.978,105.501z M16.898,196.613c19.617,19.617,50.154,21.633,72.032,6.075L8.754,127.709
	C-4.506,149.295-1.801,177.915,16.898,196.613z"/>
</svg>